<?xml version="1.0" encoding="utf-8"?><svg id="rt-logo" image-rendering="auto" baseProfile="basic" version="1.1" x="0px" y="0px" width="130" height="120" xmlns="http://www.w3.org/2000/svg" xmlns:xlink="http://www.w3.org/1999/xlink"><defs><filter id="filter" filterUnits="objectBoundingBox" width="100%" height="100%" x="0%" y="0%"><feColorMatrix type="matrix" in="SourceGraphic" result="colorTrans" values="1 0 0 0 0 0 1 0 0 0 0 0 1 0 0 0 0 0 .2 0"/></filter><g id="atom.svg-Assets_Layer-1_Page-1" overflow="visible"><use xlink:href="#Layer2_0_FILL"/></g><g id="Symbol-1" overflow="visible"><use xlink:href="#Layer3_0_FILL"/></g><g id="Layer3_0_FILL"><path fill="#000" stroke="none" d="M3 0L0 0 0 3 3 3 3 0Z"/></g><g id="Layer2_0_FILL"><path fill="#000" stroke="none" d="M93.15 117.05L92.8 116.1 90.85 116.7 91.15 117.7 93.15 117.05M97 115.25L96.45 114.35 94.65 115.3 95.1 116.25 97 115.25M100.15 113.05L99.5 112.25 97.9 113.5 98.45 114.35 100.15 113.05M84.85 118.55L84.85 117.5Q84.2 117.5 82.8 117.4L82.7 118.45Q84.1 118.55 84.85 118.55M89.05 118.15L88.85 117.15 86.85 117.4 86.95 118.45 89.05 118.15M105.75 106.65L104.85 106.1 103.75 107.8 104.55 108.4 105.75 106.65M103.25 110.1L102.45 109.4 101.05 110.9 101.8 111.65 103.25 110.1M107.55 102.8L106.6 102.45 105.8 104.3 106.75 104.75 107.55 102.8M32.3 115.25L32.85 114.35Q32.6 114.25 31.15 113.3L30.55 114.15 32.3 115.25M40.15 117.1L38.15 116.6 37.9 117.6 39.95 118.1 40.15 117.1M35.8 116.95L36.2 115.95Q35.55 115.75 34.35 115.15L33.85 116.1 35.8 116.95M27.3 111.4L28.85 112.85 29.5 112.05 28 110.7 27.3 111.4M25.85 109.85L26.65 109.15 25.4 107.55 24.55 108.15Q24.95 108.75 25.85 109.85M23.4 104.05L22.45 104.5 23.4 106.4 24.3 105.85Q23.6 104.55 23.4 104.05M22.6 102.15Q22.25 101.2 22 100.2L21 100.5 21.6 102.5 22.6 102.15M59.2 112.25Q58.2 113.1 57.55 113.45L58.15 114.3 59.85 113.05 59.2 112.25M56.35 115.4L55.85 114.5 54.05 115.45 54.5 116.4 56.35 115.4M50.2 116.8L50.45 117.8 52.45 117.2 52.15 116.2 50.2 116.8M44.2 117.5Q43.55 117.5 42.15 117.4L42.05 118.4 44.2 118.55 44.2 117.5M48.25 117.2L46.25 117.45 46.3 118.45 48.4 118.2 48.25 117.2M73.2 114.4L71.5 113.3 70.9 114.15Q71.85 114.85 72.7 115.3L73.2 114.4M76.55 117.05L76.9 116.1 75 115.35 74.6 116.25Q75.65 116.75 76.55 117.05M80.75 117.15L78.8 116.7 78.5 117.7 80.55 118.15 80.75 117.15M69.2 112.85L69.85 112.05 68.35 110.7 67.65 111.4Q68.25 112.1 69.2 112.85M65.75 107.55L64.9 108.1 66.15 109.8 66.95 109.15Q66.05 108.05 65.75 107.55M62.1 109.4L60.75 110.9 61.45 111.6Q62 111.15 62.9 110.1L62.1 109.4M64.5 106.1L63.35 107.8 64.2 108.4 65.35 106.65 64.5 106.1M62.55 102.2L61.5 100.4 60.6 100.9 61.65 102.7 62.55 102.2M63.6 103.95L62.7 104.5 63.7 106.3 64.6 105.75 63.6 103.95M66.4 104.85L67.45 103.05 66.55 102.55 65.5 104.35 66.4 104.85M67.6 100.75L68.5 101.25 69.5 99.45 68.6 98.95 67.6 100.75M72.75 91.8L71.7 93.6 72.6 94.1 73.65 92.3 72.75 91.8M74.8 88.2L73.8 90 74.7 90.5 75.7 88.7 74.8 88.2M70.7 95.35L69.65 97.15 70.55 97.7 71.6 95.9 70.7 95.35M69.5 83.6L69.5 82.55 67.45 82.55 67.45 83.6 69.5 83.6M65.35 83.6L65.35 82.55 63.3 82.55 63.3 83.6 65.35 83.6M77.8 85.15L76.9 84.6 75.85 86.4 76.75 86.95 77.8 85.15M78.95 81.05L77.95 82.85 78.8 83.35 79.85 81.55 78.95 81.05M73.65 83.6L73.65 82.55 71.6 82.55 71.6 83.6 73.65 83.6M75.7 82.55L75.7 83.6 77.8 83.6 77.8 82.55 75.7 82.55M59.45 96.8L58.55 97.3 59.6 99.1 60.45 98.6 59.45 96.8M58.4 95L57.35 93.2 56.45 93.75 57.5 95.55 58.4 95M54.4 90.15L55.45 91.95 56.35 91.45 55.3 89.65 54.4 90.15M48.8 83.6L48.8 82.55 46.75 82.55 46.75 83.6 48.8 83.6M44.7 82.55L42.6 82.55 42.6 83.6 44.7 83.6 44.7 82.55M47.15 77.6L48.05 77.1 47 75.3 46.15 75.8 47.15 77.6M49.1 78.9L48.2 79.4 49.25 81.2 50.15 80.7 49.1 78.9M59.15 82.55L59.15 83.6 61.25 83.6 61.25 82.55 59.15 82.55M55.05 82.55L55.05 83.6 57.1 83.6 57.1 82.55 55.05 82.55M53.25 86.05L52.35 86.55 53.35 88.35 54.25 87.85 53.25 86.05M50.9 82.55L50.9 82.65 50.25 83 51.3 84.8 52.2 84.25 51.8 83.6 52.95 83.6 52.95 82.55 51.2 82.55 51.15 82.45 51 82.55 50.9 82.55M44.95 71.7L44.05 72.25 45.1 74.05 46 73.5 44.95 71.7M43.9 69.95L42.9 68.15 42 68.65 43 70.45 43.9 69.95M40.95 66.85L41.85 66.35 40.8 64.55 39.9 65.05 40.95 66.85M40.9 53.8L41.95 52.05 41.05 51.5 40.05 53.3 40.9 53.8M20.55 98.45L21.55 98.3 21.3 96.3 20.25 96.4Q20.35 97.5 20.55 98.45M21.3 92.2L20.25 92.1 20.15 94.25 21.2 94.25Q21.2 92.9 21.3 92.2M21.55 90.15L22 88.2 21 87.9 20.55 90 21.55 90.15M28.15 83.6L28.15 82.55 26.05 82.55 26.05 83.6 28.15 83.6M21.65 85.85L22.6 86.2 23.4 84.35 22.45 83.9 21.65 85.85M22 82.45L21.9 83.45 24 83.6 24 82.55Q23.3 82.55 22 82.45M23.45 81.95L24.35 82.5 25.4 80.7 24.5 80.2 23.45 81.95M27.45 77.1L26.6 76.6 25.55 78.4 26.45 78.9 27.45 77.1M32.25 83.6L32.25 82.55 30.2 82.55 30.2 83.6 32.25 83.6M36.4 83.6L36.4 82.55 34.35 82.55 34.35 83.6 36.4 83.6M38.5 82.55L38.5 83.6 40.55 83.6 40.55 82.55 38.5 82.55M8.4 77.7L9.1 76.9 7.6 75.5 6.9 76.25 8.4 77.7M15.7 82L16.05 81.05 14.2 80.25 13.75 81.15Q14.45 81.55 15.7 82M19.8 83.15L19.95 82.15 18 81.7 17.7 82.7 19.8 83.15M11.9 80.2L12.4 79.3 10.7 78.2 10.1 79 11.9 80.2M6.3 74.05L5.1 72.4 4.25 73 5.5 74.7 6.3 74.05M3.1 71.2L4 70.65Q3.5 69.85 3.1 68.85L2.15 69.3 3.1 71.2M1.35 67.3L2.3 66.95 1.75 65 .75 65.25Q.95 66.2 1.35 67.3M1.1 60.95L.05 61.05 .3 63.15 1.3 62.95 1.1 60.95M0 59.25L1.05 59.25 1.1 57.25 .1 57.15Q0 57.85 0 59.25M.35 55.05L1.4 55.25 1.8 53.25 .8 53 .35 55.05M31.6 69.95L30.7 69.45 29.7 71.2 30.6 71.75 31.6 69.95M33.7 66.35L32.8 65.85 31.75 67.65 32.65 68.15 33.7 66.35M34.85 62.25L33.8 64.05 34.7 64.55 35.75 62.8 34.85 62.25M29.55 73.55L28.65 73 27.6 74.8 28.5 75.3 29.55 73.55M38.75 60.95L37.85 61.5 38.9 63.3 39.8 62.75 38.75 60.95M37.7 59.2L36.8 59.7 36.55 59.25 35.9 60.45 36.8 61 37.8 59.2 37.65 59.1 37.7 59.2M36.7 57.4L35.8 57.9 36.55 59.25 36.9 58.7 37.65 59.1 36.7 57.4M34.6 53.8L33.7 54.3 34.75 56.1 35.65 55.6 34.6 53.8M33.6 52L32.55 50.2 31.65 50.75 32.7 52.55 33.6 52M39.9 55.6L39 55.1 37.95 56.9 38.85 57.4 39.9 55.6M30.6 48.95L31.5 48.45 30.45 46.65 29.6 47.15 30.6 48.95M28.55 45.35L29.45 44.85 28.4 43.05 27.5 43.55 28.55 45.35M26.45 41.8L27.35 41.25 26.35 39.45 25.45 40 26.45 41.8M23.35 36.4L23.4 36.5 24.4 38.2 25.3 37.7 24.3 35.95 24.25 35.9 23.35 36.4M24.4 34.95L24.4 36 26.5 36 26.5 34.95 24.4 34.95M20.3 36.35L22.3 36.1 22.25 35.05Q21.4 35.1 20.15 35.3L20.3 36.35M22.55 32.2L21.6 32.55Q22.05 33.8 22.4 34.5L23.35 34.1 22.55 32.2M20.25 26.35L21.25 26.3 21.2 24.25 20.15 24.25 20.25 26.35M20.95 30.55L21.95 30.25 21.55 28.3 20.5 28.45 20.95 30.55M36.8 36L38.9 36 38.9 34.95 36.8 34.95 36.8 36M30.6 36L30.6 34.95 28.55 34.95 28.55 36 30.6 36M32.7 34.95L32.7 36 34.75 36 34.75 34.95 32.7 34.95M12.15 38.25L12.65 39.1 14.45 38.2 14 37.25 12.15 38.25M3.2 49.45L2.25 49 1.45 50.95 2.45 51.3Q2.75 50.4 3.2 49.45M4.4 45.35Q3.85 46 3.25 47.15L4.15 47.65 5.25 45.95 4.4 45.35M8.65 40.7L9.3 41.45Q10.35 40.6 10.9 40.25L10.3 39.4Q9.2 40.2 8.65 40.7M7.85 42.8L7.15 42.05 5.7 43.65 6.5 44.3 7.85 42.8M18 35.8L16 36.4 16.35 37.4Q17.4 37 18.3 36.8L18 35.8M21.55 20.2L20.55 20 20.25 22.1 21.3 22.2 21.55 20.2M21.05 17.9L22.05 18.15Q22.3 17.1 22.65 16.25L21.7 15.9Q21.2 17.2 21.05 17.9M22.45 14L23.4 14.45Q23.9 13.35 24.35 12.65L23.45 12.1 22.45 14M27.35 7.05L28.1 7.8 29.6 6.45 28.95 5.65Q27.85 6.55 27.35 7.05M24.6 10.3L25.45 10.9 26.7 9.3 25.9 8.65 24.6 10.3M32.5 3.2L32.3 3.3 30.7 4.3 31.25 5.15 32.8 4.2 33 4.1 32.5 3.2M38.4 .8L38.65 1.8 40.6 1.4 40.45 .35Q39.35 .5 38.4 .8M36.7 2.4L36.35 1.4 34.4 2.2 34.8 3.15Q35.45 2.9 36.7 2.4M61.65 34.95L61.65 36 63.7 36 63.7 34.95 61.65 34.95M65.8 34.95L65.8 36 67.85 36 67.85 34.95 65.8 34.95M78.2 34.95L78.2 36 78.7 36 78.25 36.25 79.25 38.05 80.15 37.55 79.3 36 80.25 36 80.25 34.95 78.2 34.95M77.05 32.15L76.15 32.65 77.2 34.45 78.1 33.95 77.05 32.15M72 36L72 34.95 69.9 34.95 69.9 36 72 36M74.05 34.95L74.05 36 76.15 36 76.15 34.95 74.05 34.95M75 28.55L74.1 29.1 75.15 30.9 76.05 30.35 75 28.55M72.9 25L72.05 25.5 73.05 27.3 73.95 26.8 72.9 25M45.2 44.35L44.15 46.15 45.05 46.65 46.1 44.85 45.2 44.35M44 48.45L43.15 47.95 42.1 49.7 43 50.25 44 48.45M47.15 43.05L48.15 41.3 47.25 40.75 46.25 42.55 47.15 43.05M49.2 39.5L50.25 37.7 49.35 37.2 48.3 38.95 49.2 39.5M40.95 34.95L40.95 36 43.05 36 43.05 34.95 40.95 34.95M45.1 34.95L45.1 36 47.15 36 47.15 34.95 45.1 34.95M57.5 34.95L57.5 36 59.6 36 59.6 34.95 57.5 34.95M53.35 36L55.45 36 55.45 34.95 53.35 34.95 53.35 36M51.3 36L51.3 35.8 51.25 35.9 50.35 35.4 50.6 34.95 49.25 34.95 49.25 36 51.3 36M50.6 34.95L51.3 34.95 51.3 35.8 52.3 34.1 51.4 33.6 50.6 34.95M55.55 26.4L54.5 28.2 55.4 28.75 56.45 26.95 55.55 26.4M54.35 30.55L53.45 30 52.45 31.8 53.35 32.3 54.35 30.55M59.55 21.55L60.6 19.75 59.7 19.25 58.65 21.05 59.55 21.55M58.5 23.35L57.6 22.85 56.6 24.65 57.45 25.15 58.5 23.35M46.8 .15L46.7 1.15 48.7 1.45 48.9 .45 46.8 .15M42.55 .1L42.65 1.15 44.65 1.05 44.65 0 42.55 .1M51 .95L50.75 1.9 52.65 2.55 53.05 1.6Q51.6 1.05 51 .95M58.6 4.55L58 5.4Q58.55 5.75 59.6 6.6L60.25 5.85 58.6 4.55M56.25 4.25L56.8 3.35 54.9 2.4 54.45 3.3Q55.55 3.8 56.25 4.25M70.85 21.4L69.95 21.9 71 23.7 71.9 23.2 70.85 21.4M62.65 16.2L61.75 15.65 60.7 17.45 61.6 18 62.65 16.2M68.8 17.8L67.9 18.35 68.9 20.15 69.8 19.6 68.8 17.8M66.85 16.55L67.75 16.05 66.7 14.25 65.8 14.75 66.85 16.55M67.7 7.05L68.45 7.8 69.9 6.45 69.25 5.65 67.7 7.05M64.55 10.65L63.7 11.2Q63.973 11.656 64.5 12.5L63.8 12.1 62.8 13.9 63.7 14.4 64.65 12.7 64.8 12.95 65.7 12.45 65.5 12.15Q64.75 10.95 64.55 10.65M64.95 10.3L65.8 10.9 67.05 9.3 66.25 8.65 64.95 10.3M61.1 8.05L62.45 9.55 63.25 8.9 61.85 7.3 61.1 8.05M71.55 5.2Q73 4.25 73.25 4.15L72.75 3.25Q71.65 3.85 70.95 4.35L71.55 5.2M76.95 2.45L76.6 1.45 74.65 2.25 75.1 3.2Q76.05 2.75 76.95 2.45M78.95 1.8L80.9 1.4 80.75 .35 78.7 .8 78.95 1.8M124.8 73.4L123.95 72.8 122.7 74.4 123.5 75.05 124.8 73.4M126 69.3L125.05 71.05 125.95 71.6 126.95 69.7 126 69.3M128.45 65.75L127.45 65.5 126.8 67.4 127.75 67.8 128.45 65.75M129.2 61.6L128.15 61.5 127.9 63.5 128.9 63.7Q129.15 62.65 129.2 61.6M128.25 59.5L129.3 59.5 129.25 57.35 128.2 57.4 128.25 59.5M128.5 53.1L127.5 53.35Q127.8 54.3 127.95 55.35L128.95 55.2 128.5 53.1M126.9 51.4L127.85 51.05Q127.55 50.15 127.05 49.1L126.15 49.5 126.9 51.4M108.7 98.75L107.7 98.6 107.2 100.55 108.2 100.85 108.7 98.75M108 96.55L109 96.65Q109 96.55 109.15 94.5L108.1 94.5 108 96.55M108.8 90.3L107.8 90.5 108.05 92.5 109.05 92.4Q108.95 91 108.8 90.3M107.75 86.2L106.8 86.55 107.4 88.45 108.4 88.2 107.75 86.2M111.05 82.8L110.8 81.8Q109.8 82.1 108.8 82.25L109 83.25Q109.95 83.1 111.05 82.8M106.15 82.5L106.05 82.35 105.65 82.55 104.7 82.55 104.7 83.6 105.5 83.6 106.05 84.65 107 84.2 106.65 83.55 106.8 83.5 106.75 82.5 106.15 82.5M103.95 78.75L103.05 79.25 104.1 81.05 105 80.55 103.95 78.75M102.9 76.95L101.9 75.15 101 75.7 102.05 77.45 102.9 76.95M112.8 81.2L113.1 82.2 115.1 81.4 114.65 80.45Q113.85 80.85 112.8 81.2M118.8 79.3L118.2 78.45Q117.55 78.95 116.5 79.5L117 80.4 118.8 79.3M119.75 77.25L120.4 78.05 122 76.65 121.25 75.9Q120.6 76.65 119.75 77.25M90.2 83.6L90.2 82.55 88.15 82.55 88.15 83.6 90.2 83.6M86.05 83.6L86.05 82.55 84 82.55 84 83.6 86.05 83.6M81.95 83.6L81.95 82.55 79.85 82.55 79.85 83.6 81.95 83.6M81.95 77.95L81.05 77.45 80 79.25 80.9 79.75 81.95 77.95M82.05 75.65L82.95 76.2 84 74.4 83.1 73.85 82.05 75.65M100.55 82.55L100.55 83.6 102.6 83.6 102.6 82.55 100.55 82.55M98.5 83.6L98.5 82.55 96.4 82.55 96.4 83.6 98.5 83.6M94.35 83.6L94.35 82.55 92.25 82.55 92.25 83.6 94.35 83.6M97.9 70.3L98.8 69.8 97.75 68 96.85 68.5 97.9 70.3M98.9 72.1L99.95 73.9 100.85 73.35 99.8 71.6 98.9 72.1M95.7 64.4L94.8 64.95 95.8 66.7 96.7 66.2 95.7 64.4M86.05 70.8L85.15 70.3 84.15 72.1 85.05 72.6 86.05 70.8M88.15 67.2L87.25 66.7 86.2 68.5 87.1 69 88.15 67.2M89.3 63.1L88.25 64.9 89.15 65.45 90.2 63.65 89.3 63.1M89.5 53.65L88.6 54.2 89.6 55.95 90.5 55.45 89.5 53.65M87.4 50.05L86.5 50.6 87.55 52.4 88.45 51.85 87.4 50.05M92.25 60.05L91.35 59.55 90.35 61.35 91.25 61.85 92.25 60.05M91.7 59.55L92.6 59.05 91.55 57.25 90.65 57.75 91.7 59.55M93.6 60.85L92.7 61.35 93.75 63.15 94.65 62.6 93.6 60.85M93.45 55.95L92.4 57.75 93.3 58.25 94.35 56.45 93.45 55.95M95.5 52.35L94.5 54.15 95.35 54.7 96.4 52.9 95.5 52.35M119.05 39.4L118.45 40.25 120.05 41.5 120.7 40.7 119.05 39.4M115.35 37.25L114.9 38.2 116.7 39.15 117.2 38.25 115.35 37.25M101.6 43.9L102.6 42.15 101.7 41.6 100.7 43.4 101.6 43.9M103.8 38.05L102.75 39.8 103.65 40.35 104.7 38.55 103.8 38.05M107.2 35.05L107.1 36.1 109.1 36.35 109.3 35.35 107.2 35.05M103.05 34.95L103.05 36 104.95 36 104.8 36.25 105.7 36.75 105.9 36.45 106.75 34.85 105.8 34.4 105.1 35.75 105.1 34.95 103.05 34.95M108 26.55Q107.95 27.55 107.7 28.55L108.75 28.75 109 26.65 108 26.55M108.25 30.85L107.25 30.6 106.6 32.5 107.6 32.85 108.25 30.85M113.4 36.45L111.4 35.8 111.1 36.8 113.05 37.45 113.4 36.45M98.5 49.3L97.6 48.8 96.55 50.55 97.45 51.1 98.5 49.3M99.65 45.2L98.6 47 99.5 47.5 100.55 45.7 99.65 45.2M85.35 46.5L84.45 47 85.5 48.8 86.35 48.3 85.35 46.5M82.35 43.4L83.4 45.2 84.3 44.7 83.25 42.9 82.35 43.4M82.25 41.1L81.2 39.3 80.3 39.85 81.35 41.65 82.25 41.1M86.5 34.95L86.5 36 88.55 36 88.55 34.95 86.5 34.95M82.35 34.95L82.35 36 84.4 36 84.4 34.95 82.35 34.95M98.9 36L100.95 36 100.95 34.95 98.9 34.95 98.9 36M92.7 36L92.7 34.95 90.6 34.95 90.6 36 92.7 36M94.75 34.95L94.75 36 96.8 36 96.8 34.95 94.75 34.95M86.95 1.15L88.95 1.4 89.15 .4 87.05 .1 86.95 1.15M82.85 1.15Q84.25 1.05 84.9 1.05L84.9 0Q84.2 0 82.8 .1L82.85 1.15M92.9 2.5L93.25 1.55Q92.05 1.1 91.25 .9L90.95 1.9Q91.95 2.15 92.9 2.5M100.6 5.85L98.95 4.55 98.35 5.4Q98.9 5.75 99.95 6.6L100.6 5.85M96.45 4.15L96.65 4.3 97.15 3.4 96.95 3.25 95.25 2.4 94.8 3.3 96.45 4.15M109.05 22.4L108 22.5Q108.1 23.15 108.1 24.5L109.15 24.5 109.05 22.4M108.35 18.3L107.35 18.55Q107.4 18.8 107.8 20.55L108.8 20.35 108.35 18.3M106.75 16.55L107.75 16.2 106.95 14.25 106 14.7Q106.4 15.5 106.75 16.55M105.95 12.35L104.85 10.55 104 11.15Q104.65 12.05 105.05 12.85L105.95 12.35M101.4 8L102.8 9.5 103.55 8.85Q103.15 8.3 102.15 7.3L101.4 8M124.95 45.4L124.1 46 125.2 47.7 126.1 47.2Q125.65 46.35 124.95 45.4M122.3 42.2L121.55 42.9 122.9 44.4 123.7 43.75 122.3 42.2Z"/></g><g id="Layer1_0_FILL"><path fill="#000" stroke="none" d="M78.15 36.4L50.5 36.3 36.5 60.2 50.6 83.45 78.25 84 92.3 60.1 78.15 36.4M51.1 37.3L76.9 37.4 63.95 60.2 37.95 59.7 51.1 37.3M77.95 82.55L64.85 60.7 77.85 37.9 91.1 60.1 77.95 82.55M76.95 82.95L51.2 82.4 38 60.75 63.95 61.25 76.95 82.95Z"/></g></defs><g id="Scene-1" overflow="visible"><use xlink:href="#Symbol-1" transform="translate(35.4 115.5)"><animateTransform attributeName="transform" additive="replace" type="translate" repeatCount="indefinite" dur="4.167s" keyTimes="0;.01;.02;.03;.04;.05;.06;.07;.08;.09;.1;.11;.12;.13;.14;.15;.16;.17;.18;.19;.2;.21;.22;.23;.24;.25;.26;.27;.28;.29;.3;.31;.32;.33;.34;.35;.36;.37;.38;.39;.4;.41;.42;.43;.44;.45;.46;.47;.48;.49;.5;.51;.52;.53;.54;.55;.56;.57;.58;.59;.6;.61;.62;.63;.64;.65;.66;.67;.68;.69;.7;.71;.72;.73;.74;.75;.76;.77;.78;.79;.8;.81;.82;.83;.84;.85;.86;.87;.88;.89;.9;.91;.92;.93;.94;.95;.96;.97;.98;.99;1" values="35.4,115.5;38.1,117.45;41.5,118;44.9,117.6;48.15,116.6;51.25,115.3;54.2,113.55;57.05,111.55;59.6,109.3;61.95,106.8;64.15,104.15;66.25,101.4;68.25,98.65;70.2,95.8;72.05,92.95;73.9,90.05;75.65,87.1;77.4,84.15;79.05,81.15;80.7,78.15;82.3,75.1;83.85,72;85.25,68.9;86.9,66.65;88.5,64.3;90.05,61.9;91.5,59.45;92.95,57;94.3,54.5;95.65,52;96.9,49.45;98.15,46.85;99.3,44.25;100.4,41.65;101.45,39;102.4,36.35;103.3,33.6;104.05,30.9;104.7,28.1;105.15,25.3;105.4,22.6;105.35,19.6;105,16.75;104.25,14.05;103.2,11.4;101.8,8.9;100.1,6.65;98.05,4.65;95.8,2.95;93.2,1.7;90.5,1.05;87.9,.25;84.05,-.45;81.75,-.45;78.9,.5;76.25,1.85;73.65,3.4;71.2,5.1;68.85,6.95;66.6,8.95;64.4,11.05;62.4,13.25;60.45,15.55;58.65,17.95;56.95,20.4;55.35,22.95;53.8,25.5;52.3,28.1;50.9,30.75;49.55,33.45;48.3,36.15;47.1,38.9;46.15,41.7;44.15,44.2;42.25,46.85;40.4,49.5;38.6,52.15;36.85,54.85;35.2,57.55;33.5,60.3;31.85,63.1;30.25,65.9;28.7,68.7;27.2,71.55;25.75,74.45;24.4,77.35;23.15,80.3;21.95,83.3;20.95,86.4;20.2,89.5;19.8,92.7;20,95.7;20.55,99.1;21.4,102.2;22.65,105.15;24.25,107.9;26.25,110.45;28.65,112.6;31.45,114.2;34.5,115;34.5,115"/></use><use xlink:href="#Symbol-1" transform="translate(36.75 82.25)"><animateTransform attributeName="transform" additive="replace" type="translate" repeatCount="indefinite" dur="4.167s" keyTimes="0;.01;.02;.03;.04;.05;.06;.07;.08;.09;.1;.11;.12;.13;.14;.15;.16;.17;.18;.19;.2;.21;.22;.23;.24;.25;.26;.27;.28;.29;.3;.31;.32;.33;.34;.35;.36;.37;.38;.39;.4;.41;.42;.43;.44;.45;.46;.47;.48;.49;.5;.51;.52;.53;.54;.55;.56;.57;.58;.59;.6;.61;.62;.63;.64;.65;.66;.67;.68;.69;.7;.71;.72;.73;.74;.75;.76;.77;.78;.79;.8;.81;.82;.83;.84;.85;.86;.87;.88;.89;.9;.91;.92;.93;.94;.95;.96;.97;.98;.99;1" values="36.75,82.25;40.05,82.2;43.65,82.15;47.25,82.05;50.9,81.9;54.05,81.8;57.65,81.75;61.25,81.7;64.7,81.7;68.25,81.8;71.55,82;75.1,82.25;78.65,82.4;82.2,82.55;85.7,82.7;89.2,82.75;92.6,82.7;96.15,82.5;99.65,82.2;103.15,81.85;106.6,81.35;110.05,80.65;113.3,79.75;116.6,78.15;119.45,76.05;121.85,73.55;123.9,70.7;125.5,67.6;126.75,64.3;127.65,60.95;128.05,57.35;128.1,54.05;127.05,50.7;125.35,47.6;123.2,44.85;120.65,42.5;117.8,40.5;114.55,38.75;111.4,37.5;108.05,36.5;104.65,35.8;101.2,35.25;97.7,34.8;94.2,34.55;90.7,34.35;87.2,34.3;83.7,34.3;80.2,34.45;76.7,34.65;73.2,35;69.8,35.5;67.2,36.35;64.45,36;61.9,36.15;59.1,36.5;56.3,36.05;53.9,35.4;51.1,35.35;48.4,35.3;45.65,35.2;42.95,35.15;40.2,35.05;37.5,35;34.8,34.9;32.1,34.8;29.35,34.65;26.6,34.5;24.05,34.55;21.25,34.95;18.55,35.65;16.15,36.6;13.55,37.7;11.05,38.75;8.7,39.95;7,42.05;5.55,44.4;4.2,46.75;3,49.2;1.95,51.75;1.1,54.35;.45,56.95;.1,59.7;.2,62.4;.85,65.05;2.3,67.35;3.65,69.6;5.15,71.9;6.7,74.2;8.3,76.5;10.1,78.3;12.6,79.6;15.25,80.25;17.85,80.9;20.5,81.95;22.85,82.8;25.65,82.7;28.3,82.15;30.95,82.2;33.95,81.9;36.45,81.75;36.45,81.75"/></use><use xlink:href="#Symbol-1" transform="translate(31.25 2.5)"><animateTransform attributeName="transform" additive="replace" type="translate" repeatCount="indefinite" dur="4.167s" keyTimes="0;.01;.02;.03;.04;.05;.06;.07;.08;.09;.1;.11;.12;.13;.14;.15;.16;.17;.18;.19;.2;.21;.22;.23;.24;.25;.26;.27;.28;.29;.3;.31;.32;.33;.34;.35;.36;.37;.38;.39;.4;.41;.42;.43;.44;.45;.46;.47;.48;.49;.5;.51;.52;.53;.54;.55;.56;.57;.58;.59;.6;.61;.62;.63;.64;.65;.66;.67;.68;.69;.7;.71;.72;.73;.74;.75;.76;.77;.78;.79;.8;.81;.82;.83;.84;.85;.86;.87;.88;.89;.9;.91;.92;.93;.94;.95;.96;.97;.98;.99;1" values="31.25,2.5;28.8,4.3;26.45,6.5;24.4,8.9;23,11.6;21.9,14.6;21,17.7;20.35,20.9;19.95,24;20,26.9;20.35,30.1;21.1,33.25;22.15,36.25;23.6,38.65;25.45,41.55;27.2,44.3;29,47.05;30.8,49.85;32.3,52.3;33.7,55;35.2,57.8;36.7,60.6;38.25,63.35;39.8,66.15;41.35,68.9;42.9,71.65;44.45,74.35;46.05,77.1;47.65,79.85;49.25,82.55;50.9,85.25;52.5,87.95;54.15,90.65;55.85,93.35;57.55,96;59.3,98.65;61.05,101.3;62.85,103.9;64.75,106.45;66.7,108.9;68.65,111.05;71.15,113.25;73.7,115.1;76.75,116.45;80.1,117;82.55,116.9;85.85,116.95;89.1,116.6;92.25,115.9;95.15,114.65;98,112.2;99.5,110.65;101.7,108;103.6,105.45;105.3,102.75;106.7,99.85;107.7,96.85;108.15,93.75;107.5,89.9;107,88.2;105.9,84.85;104.6,81.9;103.2,79;101.7,76.2;100.05,73.3;98,70.1;96.8,68.35;94.9,65.6;93.05,62.95;91.25,60.3;89.4,57.65;87.55,55.05;85.7,52.4;83.6,49.45;82.6,47.65;81.4,44.5;80.2,41.45;78.95,38.5;77.45,34.9;76.35,32.9;74.75,30.1;73.15,27.3;71.55,24.6;69.9,21.85;68.25,19.15;66.55,16.5;64.8,13.85;63.05,11.2;61,8.3;59.6,6.15;57.2,4.05;54.45,2.5;51.5,1.25;48.45,.3;45.25,-.35;42.1,-.65;38.95,-.45;35.85,.2;32.9,1.55;30.9,3.35;30.9,3.35"/></use><use xlink:href="#Layer1_0_FILL"/><use xlink:href="#atom.svg-Assets_Layer-1_Page-1" filter="url(#filter)"/></g></svg>
